<svg width="54" height="54" viewBox="0 0 54 54" fill="none" xmlns="http://www.w3.org/2000/svg">
<path d="M27 0C19.8392 0 12.9716 2.84464 7.90812 7.90812C2.84464 12.9716 0 19.8392 0 27C0 34.1608 2.84464 41.0284 7.90812 46.0919C12.9716 51.1554 19.8392 54 27 54C34.1608 54 41.0284 51.1554 46.0919 46.0919C51.1554 41.0284 54 34.1608 54 27C54 19.8392 51.1554 12.9716 46.0919 7.90812C41.0284 2.84464 34.1608 0 27 0ZM3.33 29.04H10.86C10.98 31.77 11.361 34.482 12 37.14H5.52C4.31162 34.5926 3.56988 31.8492 3.33 29.04ZM29.04 12.84V3.57C31.931 4.66867 34.3067 6.80887 35.7 9.57C36.315 10.611 36.858 11.694 37.32 12.81L29.04 12.84ZM38.7 16.89C39.396 19.539 39.81 22.254 39.93 24.99H29.04V16.89H38.7ZM24.96 3.57V12.84H16.68C17.1428 11.7231 17.6841 10.6404 18.3 9.6C19.6874 6.82756 22.0638 4.67598 24.96 3.57ZM24.96 16.89V24.99H14.1C14.22 22.254 14.634 19.539 15.33 16.89H24.96ZM10.86 24.96H3.33C3.56988 22.1508 4.31162 19.4074 5.52 16.86H12C11.3598 19.5169 10.978 22.2296 10.86 24.96ZM14.1 29.04H24.96V37.14H15.33C14.6341 34.4912 14.2218 31.776 14.1 29.04ZM24.99 41.04V50.31C22.099 49.2113 19.7233 47.0711 18.33 44.31C17.7141 43.2696 17.1728 42.1869 16.71 41.07L24.99 41.04ZM29.04 50.31V41.19H37.32C36.8572 42.3069 36.3159 43.3896 35.7 44.43C34.3067 47.1911 31.931 49.3313 29.04 50.43V50.31ZM29.04 36.99V28.89H39.9C39.7782 31.626 39.3659 34.3412 38.67 36.99H29.04ZM43.17 28.89H50.7C50.4601 31.6992 49.7184 34.4426 48.51 36.99H42C42.63 34.38 43.011 31.719 43.14 29.04L43.17 28.89ZM43.17 24.84C43.0326 22.1589 42.6409 19.497 42 16.89H48.48C49.689 19.44 50.43 22.182 50.67 24.99L43.17 24.84ZM46.17 12.84H40.8C39.8284 10.1109 38.42 7.55768 36.63 5.28C40.3631 6.95574 43.6058 9.55815 46.05 12.84H46.17ZM17.37 5.28C15.58 7.55768 14.1716 10.1109 13.2 12.84H7.95C10.3942 9.55815 13.6369 6.95574 17.37 5.28ZM7.92 41.28H13.2C14.1716 44.0091 15.58 46.5623 17.37 48.84C13.6265 47.139 10.3828 44.5048 7.95 41.19L7.92 41.28ZM36.6 48.84C38.39 46.5623 39.7984 44.0091 40.77 41.28H46.05C43.5909 44.5179 40.3495 47.078 36.63 48.72L36.6 48.84Z" fill="#7900FF"/>
</svg>
