<svg width="70" height="60" viewBox="0 0 70 60" fill="none" xmlns="http://www.w3.org/2000/svg">
<path d="M30.6249 42.3438C30.6249 43.776 30.2661 44.9935 29.5483 45.9961C28.8306 46.9987 27.9704 47.5 26.9679 47.5H12.4081C11.4055 47.5 10.5454 46.9987 9.82763 45.9961C9.1099 44.9935 8.75103 43.776 8.75103 42.3438C8.75103 40.9375 8.83647 39.6289 9.00736 38.418C9.17825 37.207 9.45737 36.0352 9.84472 34.9023C10.2321 33.7695 10.8131 32.8776 11.5878 32.2266C12.3625 31.5755 13.2853 31.25 14.3562 31.25C15.8145 32.9167 17.5917 33.75 19.688 33.75C21.7842 33.75 23.5615 32.9167 25.0197 31.25C26.0907 31.25 27.0135 31.5755 27.7882 32.2266C28.5629 32.8776 29.1439 33.7695 29.5312 34.9023C29.9186 36.0352 30.1977 37.207 30.3686 38.418C30.5395 39.6289 30.6249 40.9375 30.6249 42.3438ZM26.2502 25C26.2502 27.0833 25.6122 28.8542 24.3362 30.3125C23.0602 31.7708 21.5108 32.5 19.688 32.5C17.8652 32.5 16.3158 31.7708 15.0398 30.3125C13.7638 28.8542 13.1258 27.0833 13.1258 25C13.1258 22.9167 13.7638 21.1458 15.0398 19.6875C16.3158 18.2292 17.8652 17.5 19.688 17.5C21.5108 17.5 23.0602 18.2292 24.3362 19.6875C25.6122 21.1458 26.2502 22.9167 26.2502 25ZM61.2484 41.25V43.75C61.2484 44.1146 61.1459 44.4141 60.9408 44.6484C60.7357 44.8828 60.4737 45 60.1547 45H36.0934C35.7744 45 35.5124 44.8828 35.3073 44.6484C35.1022 44.4141 34.9997 44.1146 34.9997 43.75V41.25C34.9997 40.8854 35.1022 40.5859 35.3073 40.3516C35.5124 40.1172 35.7744 40 36.0934 40H60.1547C60.4737 40 60.7357 40.1172 60.9408 40.3516C61.1459 40.5859 61.2484 40.8854 61.2484 41.25ZM48.1241 31.25V33.75C48.1241 34.1146 48.0215 34.4141 47.8165 34.6484C47.6114 34.8828 47.3494 35 47.0304 35H36.0934C35.7744 35 35.5124 34.8828 35.3073 34.6484C35.1022 34.4141 34.9997 34.1146 34.9997 33.75V31.25C34.9997 30.8854 35.1022 30.5859 35.3073 30.3516C35.5124 30.1172 35.7744 30 36.0934 30H47.0304C47.3494 30 47.6114 30.1172 47.8165 30.3516C48.0215 30.5859 48.1241 30.8854 48.1241 31.25ZM61.2484 31.25V33.75C61.2484 34.1146 61.1459 34.4141 60.9408 34.6484C60.7357 34.8828 60.4737 35 60.1547 35H53.5925C53.2735 35 53.0115 34.8828 52.8064 34.6484C52.6014 34.4141 52.4988 34.1146 52.4988 33.75V31.25C52.4988 30.8854 52.6014 30.5859 52.8064 30.3516C53.0115 30.1172 53.2735 30 53.5925 30H60.1547C60.4737 30 60.7357 30.1172 60.9408 30.3516C61.1459 30.5859 61.2484 30.8854 61.2484 31.25ZM61.2484 21.25V23.75C61.2484 24.1146 61.1459 24.4141 60.9408 24.6484C60.7357 24.8828 60.4737 25 60.1547 25H36.0934C35.7744 25 35.5124 24.8828 35.3073 24.6484C35.1022 24.4141 34.9997 24.1146 34.9997 23.75V21.25C34.9997 20.8854 35.1022 20.5859 35.3073 20.3516C35.5124 20.1172 35.7744 20 36.0934 20H60.1547C60.4737 20 60.7357 20.1172 60.9408 20.3516C61.1459 20.5859 61.2484 20.8854 61.2484 21.25ZM65.6232 53.75V10H4.37625V53.75C4.37625 54.0885 4.48448 54.3815 4.70094 54.6289C4.9174 54.8763 5.17373 55 5.46994 55H64.5295C64.8257 55 65.082 54.8763 65.2985 54.6289C65.515 54.3815 65.6232 54.0885 65.6232 53.75ZM69.998 6.25V53.75C69.998 55.4688 69.4625 56.9401 68.3916 58.1641C67.3207 59.388 66.0333 60 64.5295 60H5.46994C3.96611 60 2.67874 59.388 1.60783 58.1641C0.53692 56.9401 0.00146484 55.4688 0.00146484 53.75V6.25C0.00146484 4.53125 0.53692 3.0599 1.60783 1.83594C2.67874 0.611979 3.96611 0 5.46994 0H64.5295C66.0333 0 67.3207 0.611979 68.3916 1.83594C69.4625 3.0599 69.998 4.53125 69.998 6.25Z" fill="#7900FF"/>
</svg>
