<svg width="60" height="60" viewBox="0 0 60 60" fill="none" xmlns="http://www.w3.org/2000/svg">
<path d="M53.3333 0C55.1014 0 56.7971 0.702379 58.0474 1.95262C59.2976 3.20286 60 4.89856 60 6.66667V53.3333C60 55.1014 59.2976 56.7971 58.0474 58.0474C56.7971 59.2976 55.1014 60 53.3333 60H6.66667C4.89856 60 3.20286 59.2976 1.95262 58.0474C0.702379 56.7971 0 55.1014 0 53.3333V6.66667C0 4.89856 0.702379 3.20286 1.95262 1.95262C3.20286 0.702379 4.89856 0 6.66667 0H53.3333ZM51.6667 51.6667V34C51.6667 31.118 50.5218 28.354 48.4839 26.3161C46.446 24.2782 43.682 23.1333 40.8 23.1333C37.9667 23.1333 34.6667 24.8667 33.0667 27.4667V23.7667H23.7667V51.6667H33.0667V35.2333C33.0667 32.6667 35.1333 30.5667 37.7 30.5667C38.9377 30.5667 40.1247 31.0583 40.9998 31.9335C41.875 32.8087 42.3667 33.9957 42.3667 35.2333V51.6667H51.6667ZM12.9333 18.5333C14.4185 18.5333 15.8429 17.9433 16.8931 16.8931C17.9433 15.8429 18.5333 14.4185 18.5333 12.9333C18.5333 9.83333 16.0333 7.3 12.9333 7.3C11.4393 7.3 10.0064 7.89351 8.94996 8.94996C7.89351 10.0064 7.3 11.4393 7.3 12.9333C7.3 16.0333 9.83333 18.5333 12.9333 18.5333ZM17.5667 51.6667V23.7667H8.33333V51.6667H17.5667Z" fill="white"/>
</svg>
