<svg width="65" height="65" viewBox="0 0 65 65" fill="none" xmlns="http://www.w3.org/2000/svg">
<path d="M45.8926 5.44238H19.2259C11.8621 5.44238 5.89258 11.4119 5.89258 18.7757V45.4424C5.89258 52.8062 11.8621 58.7757 19.2259 58.7757H45.8926C53.2564 58.7757 59.2259 52.8062 59.2259 45.4424V18.7757C59.2259 11.4119 53.2564 5.44238 45.8926 5.44238Z" stroke="white" stroke-width="5" stroke-linecap="round" stroke-linejoin="round"/>
<path d="M43.2263 30.4302C43.5554 32.6495 43.1763 34.9161 42.143 36.9076C41.1096 38.899 39.4747 40.5139 37.4706 41.5226C35.4666 42.5313 33.1955 42.8824 30.9804 42.526C28.7653 42.1696 26.719 41.1237 25.1325 39.5373C23.546 37.9508 22.5002 35.9045 22.1438 33.6894C21.7873 31.4743 22.1384 29.2032 23.1471 27.1992C24.1558 25.1951 25.7708 23.5602 27.7622 22.5268C29.7537 21.4935 32.0203 21.1144 34.2396 21.4435C36.5034 21.7792 38.5992 22.8341 40.2175 24.4523C41.8357 26.0706 42.8906 28.1664 43.2263 30.4302Z" stroke="white" stroke-width="5" stroke-linecap="round" stroke-linejoin="round"/>
<path d="M47.2256 17.4424H47.2523" stroke="white" stroke-width="5" stroke-linecap="round" stroke-linejoin="round"/>
</svg>
