<svg width="142" height="14" viewBox="0 0 142 14" fill="none" xmlns="http://www.w3.org/2000/svg">
<path d="M6.50675 10.928L0.85875 8.4V6.736L6.50675 4.192V5.856L2.52275 7.568L6.50675 9.264V10.928ZM129.325 13.36L133.613 0.799999H135.613L131.325 13.36H129.325ZM135.491 10.928L141.139 8.4V6.736L135.491 4.192V5.856L139.475 7.568L135.491 9.264V10.928Z" fill="#7900FF"/>
<path d="M13.7986 12V2.784H10.6306V0.799999H19.0146V2.784H15.8466V12H13.7986ZM20.0839 12V-9.53674e-07H22.0679V5.168L21.6199 4.816C21.9559 4.58133 22.3212 4.36533 22.7159 4.168C23.1105 3.97067 23.5825 3.872 24.1319 3.872C24.8359 3.872 25.4092 4.02933 25.8519 4.344C26.2945 4.65333 26.6199 5.08533 26.8279 5.64C27.0359 6.18933 27.1399 6.82667 27.1399 7.552V12H25.1559V7.696C25.1559 6.94933 25.0359 6.39733 24.7959 6.04C24.5559 5.68267 24.1639 5.504 23.6199 5.504C23.1559 5.504 22.7745 5.61333 22.4759 5.832C22.1825 6.04533 21.9239 6.336 21.6999 6.704L22.0679 5.632V12H20.0839ZM30.6404 12.16C30.2137 12.16 29.8244 12.0667 29.4724 11.88C29.1204 11.688 28.8404 11.4133 28.6324 11.056C28.4244 10.6987 28.3204 10.2667 28.3204 9.76C28.3204 9.30667 28.4244 8.92 28.6324 8.6C28.8457 8.27467 29.123 8.00533 29.4644 7.792C29.811 7.57333 30.1844 7.40267 30.5844 7.28C30.9897 7.152 31.387 7.05867 31.7764 7C32.171 6.94133 32.5177 6.90667 32.8164 6.896C32.795 6.43733 32.6777 6.104 32.4644 5.896C32.251 5.688 31.8884 5.584 31.3764 5.584C31.019 5.584 30.6697 5.63467 30.3284 5.736C29.9924 5.832 29.611 5.984 29.1844 6.192L29.0084 4.576C29.4884 4.34133 29.9684 4.16533 30.4484 4.048C30.9337 3.93067 31.4244 3.872 31.9204 3.872C32.5177 3.872 33.0324 3.97867 33.4644 4.192C33.8964 4.40533 34.2297 4.74933 34.4644 5.224C34.699 5.69333 34.8164 6.31467 34.8164 7.088V9.248C34.8164 9.648 34.835 9.93867 34.8724 10.12C34.9097 10.296 34.979 10.408 35.0804 10.456C35.1817 10.504 35.3284 10.528 35.5204 10.528H35.7764L35.6004 12.16H34.8804C34.5817 12.16 34.315 12.12 34.0804 12.04C33.851 11.9653 33.6537 11.8587 33.4884 11.72C33.323 11.5813 33.1897 11.4187 33.0884 11.232C32.827 11.5253 32.4724 11.7547 32.0244 11.92C31.5817 12.08 31.1204 12.16 30.6404 12.16ZM31.4724 10.64C31.6484 10.64 31.867 10.5947 32.1284 10.504C32.3897 10.408 32.6244 10.2613 32.8324 10.064V8.24C32.459 8.256 32.0857 8.31733 31.7124 8.424C31.339 8.53067 31.027 8.688 30.7764 8.896C30.5257 9.104 30.4004 9.36533 30.4004 9.68C30.4004 10.0053 30.4857 10.248 30.6564 10.408C30.827 10.5627 31.099 10.64 31.4724 10.64ZM36.8811 12V4H38.8651V12H36.8811ZM36.8811 2.784V0.799999H38.8651V2.784H36.8811ZM42.9969 12.16C42.4689 12.16 41.9915 12.1093 41.5649 12.008C41.1435 11.9067 40.7195 11.76 40.2929 11.568L40.4689 9.872C40.8795 10.112 41.2822 10.3067 41.6769 10.456C42.0769 10.6 42.4955 10.672 42.9329 10.672C43.3275 10.672 43.6289 10.608 43.8369 10.48C44.0449 10.352 44.1489 10.1493 44.1489 9.872C44.1489 9.664 44.0929 9.49333 43.9809 9.36C43.8742 9.22667 43.7115 9.10667 43.4929 9C43.2742 8.89333 43.0022 8.77867 42.6769 8.656C42.1862 8.47467 41.7675 8.27733 41.4209 8.064C41.0795 7.85067 40.8182 7.59467 40.6369 7.296C40.4609 6.992 40.3729 6.61867 40.3729 6.176C40.3729 5.71733 40.4929 5.312 40.7329 4.96C40.9729 4.608 41.3142 4.33333 41.7569 4.136C42.1995 3.93867 42.7249 3.84 43.3329 3.84C43.8395 3.84 44.2929 3.896 44.6929 4.008C45.0982 4.12 45.4715 4.272 45.8129 4.464L45.6369 6.16C45.2795 5.90933 44.9195 5.704 44.5569 5.544C44.1942 5.37867 43.7969 5.296 43.3649 5.296C43.0235 5.296 42.7595 5.36533 42.5729 5.504C42.3862 5.64267 42.2929 5.84 42.2929 6.096C42.2929 6.40533 42.4235 6.63733 42.6849 6.792C42.9462 6.94667 43.3649 7.136 43.9409 7.36C44.3142 7.504 44.6369 7.65333 44.9089 7.808C45.1862 7.96267 45.4155 8.13333 45.5969 8.32C45.7782 8.50667 45.9115 8.72 45.9969 8.96C46.0875 9.19467 46.1329 9.46667 46.1329 9.776C46.1329 10.2827 46.0102 10.7147 45.7649 11.072C45.5249 11.424 45.1702 11.6933 44.7009 11.88C44.2369 12.0667 43.6689 12.16 42.9969 12.16ZM49.7625 12.16C49.2345 12.16 48.7572 12.1093 48.3305 12.008C47.9092 11.9067 47.4852 11.76 47.0585 11.568L47.2345 9.872C47.6452 10.112 48.0478 10.3067 48.4425 10.456C48.8425 10.6 49.2612 10.672 49.6985 10.672C50.0932 10.672 50.3945 10.608 50.6025 10.48C50.8105 10.352 50.9145 10.1493 50.9145 9.872C50.9145 9.664 50.8585 9.49333 50.7465 9.36C50.6398 9.22667 50.4772 9.10667 50.2585 9C50.0398 8.89333 49.7678 8.77867 49.4425 8.656C48.9518 8.47467 48.5332 8.27733 48.1865 8.064C47.8452 7.85067 47.5838 7.59467 47.4025 7.296C47.2265 6.992 47.1385 6.61867 47.1385 6.176C47.1385 5.71733 47.2585 5.312 47.4985 4.96C47.7385 4.608 48.0798 4.33333 48.5225 4.136C48.9652 3.93867 49.4905 3.84 50.0985 3.84C50.6052 3.84 51.0585 3.896 51.4585 4.008C51.8638 4.12 52.2372 4.272 52.5785 4.464L52.4025 6.16C52.0452 5.90933 51.6852 5.704 51.3225 5.544C50.9598 5.37867 50.5625 5.296 50.1305 5.296C49.7892 5.296 49.5252 5.36533 49.3385 5.504C49.1518 5.64267 49.0585 5.84 49.0585 6.096C49.0585 6.40533 49.1892 6.63733 49.4505 6.792C49.7118 6.94667 50.1305 7.136 50.7065 7.36C51.0798 7.504 51.4025 7.65333 51.6745 7.808C51.9518 7.96267 52.1812 8.13333 52.3625 8.32C52.5438 8.50667 52.6772 8.72 52.7625 8.96C52.8532 9.19467 52.8985 9.46667 52.8985 9.776C52.8985 10.2827 52.7758 10.7147 52.5305 11.072C52.2905 11.424 51.9358 11.6933 51.4665 11.88C51.0025 12.0667 50.4345 12.16 49.7625 12.16ZM55.9841 12.16C55.5575 12.16 55.1681 12.0667 54.8161 11.88C54.4641 11.688 54.1841 11.4133 53.9761 11.056C53.7681 10.6987 53.6641 10.2667 53.6641 9.76C53.6641 9.30667 53.7681 8.92 53.9761 8.6C54.1895 8.27467 54.4668 8.00533 54.8081 7.792C55.1548 7.57333 55.5281 7.40267 55.9281 7.28C56.3335 7.152 56.7308 7.05867 57.1201 7C57.5148 6.94133 57.8615 6.90667 58.1601 6.896C58.1388 6.43733 58.0215 6.104 57.8081 5.896C57.5948 5.688 57.2321 5.584 56.7201 5.584C56.3628 5.584 56.0135 5.63467 55.6721 5.736C55.3361 5.832 54.9548 5.984 54.5281 6.192L54.3521 4.576C54.8321 4.34133 55.3121 4.16533 55.7921 4.048C56.2775 3.93067 56.7681 3.872 57.2641 3.872C57.8615 3.872 58.3761 3.97867 58.8081 4.192C59.2401 4.40533 59.5735 4.74933 59.8081 5.224C60.0428 5.69333 60.1601 6.31467 60.1601 7.088V9.248C60.1601 9.648 60.1788 9.93867 60.2161 10.12C60.2535 10.296 60.3228 10.408 60.4241 10.456C60.5255 10.504 60.6721 10.528 60.8641 10.528H61.1201L60.9441 12.16H60.2241C59.9255 12.16 59.6588 12.12 59.4241 12.04C59.1948 11.9653 58.9975 11.8587 58.8321 11.72C58.6668 11.5813 58.5335 11.4187 58.4321 11.232C58.1708 11.5253 57.8161 11.7547 57.3681 11.92C56.9255 12.08 56.4641 12.16 55.9841 12.16ZM56.8161 10.64C56.9921 10.64 57.2108 10.5947 57.4721 10.504C57.7335 10.408 57.9681 10.2613 58.1761 10.064V8.24C57.8028 8.256 57.4295 8.31733 57.0561 8.424C56.6828 8.53067 56.3708 8.688 56.1201 8.896C55.8695 9.104 55.7441 9.36533 55.7441 9.68C55.7441 10.0053 55.8295 10.248 56.0001 10.408C56.1708 10.5627 56.4428 10.64 56.8161 10.64ZM71.1946 12.224C70.0586 12.224 69.0586 11.984 68.1946 11.504C67.3306 11.0187 66.656 10.3413 66.1706 9.472C65.6906 8.59733 65.4506 7.57333 65.4506 6.4C65.4506 5.22667 65.6986 4.20533 66.1946 3.336C66.696 2.46133 67.384 1.784 68.2586 1.304C69.1333 0.818666 70.1333 0.575999 71.2586 0.575999C71.8506 0.575999 72.392 0.639999 72.8826 0.768C73.3733 0.890666 73.7973 1.04533 74.1546 1.232L73.9306 3.184C73.5253 2.99733 73.1066 2.84533 72.6746 2.728C72.248 2.60533 71.7706 2.544 71.2426 2.544C70.4586 2.544 69.8026 2.70933 69.2746 3.04C68.752 3.37067 68.3573 3.82667 68.0906 4.408C67.824 4.98933 67.6906 5.65333 67.6906 6.4C67.6906 7.14667 67.8213 7.81067 68.0826 8.392C68.344 8.97333 68.7333 9.42933 69.2506 9.76C69.7733 10.0907 70.4213 10.256 71.1946 10.256C71.7333 10.256 72.216 10.1973 72.6426 10.08C73.0693 9.96267 73.4986 9.808 73.9306 9.616L74.1546 11.568C73.7333 11.7653 73.2693 11.9227 72.7626 12.04C72.2613 12.1627 71.7386 12.224 71.1946 12.224ZM77.2966 12.16C76.87 12.16 76.4806 12.0667 76.1286 11.88C75.7766 11.688 75.4966 11.4133 75.2886 11.056C75.0806 10.6987 74.9766 10.2667 74.9766 9.76C74.9766 9.30667 75.0806 8.92 75.2886 8.6C75.502 8.27467 75.7793 8.00533 76.1206 7.792C76.4673 7.57333 76.8406 7.40267 77.2406 7.28C77.646 7.152 78.0433 7.05867 78.4326 7C78.8273 6.94133 79.174 6.90667 79.4726 6.896C79.4513 6.43733 79.334 6.104 79.1206 5.896C78.9073 5.688 78.5446 5.584 78.0326 5.584C77.6753 5.584 77.326 5.63467 76.9846 5.736C76.6486 5.832 76.2673 5.984 75.8406 6.192L75.6646 4.576C76.1446 4.34133 76.6246 4.16533 77.1046 4.048C77.59 3.93067 78.0806 3.872 78.5766 3.872C79.174 3.872 79.6886 3.97867 80.1206 4.192C80.5526 4.40533 80.886 4.74933 81.1206 5.224C81.3553 5.69333 81.4726 6.31467 81.4726 7.088V9.248C81.4726 9.648 81.4913 9.93867 81.5286 10.12C81.566 10.296 81.6353 10.408 81.7366 10.456C81.838 10.504 81.9846 10.528 82.1766 10.528H82.4326L82.2566 12.16H81.5366C81.238 12.16 80.9713 12.12 80.7366 12.04C80.5073 11.9653 80.31 11.8587 80.1446 11.72C79.9793 11.5813 79.846 11.4187 79.7446 11.232C79.4833 11.5253 79.1286 11.7547 78.6806 11.92C78.238 12.08 77.7766 12.16 77.2966 12.16ZM78.1286 10.64C78.3046 10.64 78.5233 10.5947 78.7846 10.504C79.046 10.408 79.2806 10.2613 79.4886 10.064V8.24C79.1153 8.256 78.742 8.31733 78.3686 8.424C77.9953 8.53067 77.6833 8.688 77.4326 8.896C77.182 9.104 77.0566 9.36533 77.0566 9.68C77.0566 10.0053 77.142 10.248 77.3126 10.408C77.4833 10.5627 77.7553 10.64 78.1286 10.64ZM83.5374 12V4H85.3934L85.4414 4.848C85.644 4.624 85.9294 4.4 86.2974 4.176C86.6654 3.952 87.068 3.84 87.5054 3.84C87.6334 3.84 87.7507 3.85067 87.8574 3.872L87.7134 5.824C87.596 5.792 87.4787 5.77067 87.3614 5.76C87.2494 5.74933 87.1374 5.744 87.0254 5.744C86.6894 5.744 86.3827 5.82133 86.1054 5.976C85.828 6.13067 85.6334 6.32 85.5214 6.544V12H83.5374ZM91.0106 12L87.9386 4H89.8906L91.8586 9.536L93.8266 4H95.7786L92.7066 12H91.0106ZM98.406 12.16C97.9793 12.16 97.59 12.0667 97.238 11.88C96.886 11.688 96.606 11.4133 96.398 11.056C96.19 10.6987 96.086 10.2667 96.086 9.76C96.086 9.30667 96.19 8.92 96.398 8.6C96.6113 8.27467 96.8887 8.00533 97.23 7.792C97.5767 7.57333 97.95 7.40267 98.35 7.28C98.7553 7.152 99.1527 7.05867 99.542 7C99.9367 6.94133 100.283 6.90667 100.582 6.896C100.561 6.43733 100.443 6.104 100.23 5.896C100.017 5.688 99.654 5.584 99.142 5.584C98.7847 5.584 98.4353 5.63467 98.094 5.736C97.758 5.832 97.3767 5.984 96.95 6.192L96.774 4.576C97.254 4.34133 97.734 4.16533 98.214 4.048C98.6993 3.93067 99.19 3.872 99.686 3.872C100.283 3.872 100.798 3.97867 101.23 4.192C101.662 4.40533 101.995 4.74933 102.23 5.224C102.465 5.69333 102.582 6.31467 102.582 7.088V9.248C102.582 9.648 102.601 9.93867 102.638 10.12C102.675 10.296 102.745 10.408 102.846 10.456C102.947 10.504 103.094 10.528 103.286 10.528H103.542L103.366 12.16H102.646C102.347 12.16 102.081 12.12 101.846 12.04C101.617 11.9653 101.419 11.8587 101.254 11.72C101.089 11.5813 100.955 11.4187 100.854 11.232C100.593 11.5253 100.238 11.7547 99.79 11.92C99.3473 12.08 98.886 12.16 98.406 12.16ZM99.238 10.64C99.414 10.64 99.6327 10.5947 99.894 10.504C100.155 10.408 100.39 10.2613 100.598 10.064V8.24C100.225 8.256 99.8513 8.31733 99.478 8.424C99.1047 8.53067 98.7927 8.688 98.542 8.896C98.2913 9.104 98.166 9.36533 98.166 9.68C98.166 10.0053 98.2513 10.248 98.422 10.408C98.5927 10.5627 98.8647 10.64 99.238 10.64ZM106.695 12.16C106.22 12.16 105.831 12.0667 105.527 11.88C105.228 11.688 105.007 11.4347 104.863 11.12C104.719 10.8 104.647 10.448 104.647 10.064V-9.53674e-07H106.631V9.248C106.631 9.67467 106.655 9.97867 106.703 10.16C106.756 10.336 106.852 10.4427 106.991 10.48C107.129 10.512 107.329 10.528 107.591 10.528L107.415 12.16H106.695ZM108.834 12V-9.53674e-07H110.818V5.168L110.37 4.816C110.706 4.58133 111.071 4.36533 111.466 4.168C111.861 3.97067 112.333 3.872 112.882 3.872C113.586 3.872 114.159 4.02933 114.602 4.344C115.045 4.65333 115.37 5.08533 115.578 5.64C115.786 6.18933 115.89 6.82667 115.89 7.552V12H113.906V7.696C113.906 6.94933 113.786 6.39733 113.546 6.04C113.306 5.68267 112.914 5.504 112.37 5.504C111.906 5.504 111.525 5.61333 111.226 5.832C110.933 6.04533 110.674 6.336 110.45 6.704L110.818 5.632V12H108.834ZM121.294 12.16C120.425 12.16 119.684 11.9707 119.07 11.592C118.457 11.2133 117.988 10.7093 117.662 10.08C117.342 9.45067 117.182 8.76267 117.182 8.016C117.182 7.264 117.342 6.57067 117.662 5.936C117.988 5.30133 118.457 4.79467 119.07 4.416C119.684 4.032 120.425 3.84 121.294 3.84C122.164 3.84 122.905 4.032 123.518 4.416C124.132 4.79467 124.598 5.30133 124.918 5.936C125.244 6.57067 125.406 7.264 125.406 8.016C125.406 8.76267 125.244 9.45067 124.918 10.08C124.598 10.7093 124.132 11.2133 123.518 11.592C122.905 11.9707 122.164 12.16 121.294 12.16ZM121.294 10.528C121.961 10.528 122.473 10.296 122.83 9.832C123.193 9.36267 123.374 8.75733 123.374 8.016C123.374 7.264 123.193 6.65333 122.83 6.184C122.473 5.70933 121.961 5.472 121.294 5.472C120.633 5.472 120.121 5.70933 119.758 6.184C119.396 6.65333 119.214 7.264 119.214 8.016C119.214 8.75733 119.396 9.36267 119.758 9.832C120.121 10.296 120.633 10.528 121.294 10.528Z" fill="white"/>
</svg>
